# xmcd
# 
# Track frame offsets:
#     150
#     20870
#     40540
#     58677
#     83307
#     104077
#     128172
#     147347
#     164820
#     183175
#     197727
#     217607
#     228317
# 
# Disc length: 3228
# 
# Revision: 1
# Processed by: cddbd v1.5.2PL0 Copyright (c) Steve Scherf et al.
# Submitted via: fre:ac v1.0.31
# 
DISCID=ae0c9a0d
DTITLE=andrea bocelli - Il Mare Calmo Della Sera
DYEAR=0
DGENRE=pop
TTITLE0=Il Mare Calmo Della Sera
TTITLE1=Ave Maria No Morro
TTITLE2=Vivere (Featuring Gerardina Trovato)
TTITLE3=Rapsodia
TTITLE4=La Luna Che Non C
TTITLE5=Caruso
TTITLE6=Miserere
TTITLE7=Manis Angelicus
TTITLE8=Ah, La Paterna Mano (from Macbeth)
TTITLE9=E Lucean Le Stelle (from Tosca)
TTITLE10=La Fleur Que Tu M Avais Jet e (from Carmen)
TTITLE11=L Anima Ho Stanca (from Adriana Lecouvreur)
TTITLE12=Sogno
EXTD=
EXTT0=
EXTT1=
EXTT2=
EXTT3=
EXTT4=
EXTT5=
EXTT6=
EXTT7=
EXTT8=
EXTT9=
EXTT10=
EXTT11=
EXTT12=
PLAYORDER=
